<?xml version="1.0" encoding="UTF-8"?>
<svg xmlns="http://www.w3.org/2000/svg" width="3840" height="2160" xmlns:xlink="http://www.w3.org/1999/xlink" viewBox="0 0 3840 2160">
  <defs>
    <style>
      .cls-1 {
        stroke: url(#Degradado_sin_nombre_373);
      }

      .cls-1, .cls-2, .cls-3, .cls-4, .cls-5 {
        fill: none;
        stroke-miterlimit: 10;
        stroke-width: 2px;
      }

      .cls-2 {
        stroke: url(#Degradado_sin_nombre_297);
      }

      .cls-6 {
        fill: url(#Degradado_sin_nombre_221);
        filter: url(#drop-shadow-5);
      }

      .cls-7 {
        fill: url(#Degradado_sin_nombre_301);
        filter: url(#drop-shadow-1);
      }

      .cls-8 {
        fill: url(#Degradado_sin_nombre_84);
        filter: url(#drop-shadow-3);
      }

      .cls-3 {
        stroke: url(#Degradado_sin_nombre_218);
      }

      .cls-9 {
        fill: url(#Degradado_sin_nombre_346);
        filter: url(#drop-shadow-4);
      }

      .cls-4 {
        stroke: url(#Degradado_sin_nombre_178);
      }

      .cls-5 {
        stroke: url(#Degradado_sin_nombre_332);
      }

      .cls-10 {
        fill: url(#Degradado_sin_nombre_233);
        filter: url(#drop-shadow-2);
      }
    </style>
    <linearGradient id="Degradado_sin_nombre_301" data-name="Degradado sin nombre 301" x1="2939.85" y1="304.4" x2="2381.89" y2="1270.82" gradientUnits="userSpaceOnUse">
      <stop offset=".5" stop-color="#b635f2"/>
      <stop offset="1" stop-color="#280e69"/>
    </linearGradient>
    <filter id="drop-shadow-1" x="2498.6" y="111.48" width="910.8" height="1859.04" filterUnits="userSpaceOnUse">
      <feOffset dx="-30" dy="20"/>
      <feGaussianBlur result="blur" stdDeviation="25"/>
      <feFlood flood-color="#000" flood-opacity=".75"/>
      <feComposite in2="blur" operator="in"/>
      <feComposite in="SourceGraphic"/>
    </filter>
    <linearGradient id="Degradado_sin_nombre_233" data-name="Degradado sin nombre 233" x1="2654.51" y1="1332.6" x2="2044.35" y2="722.43" gradientUnits="userSpaceOnUse">
      <stop offset=".4" stop-color="#b635f2"/>
      <stop offset="1" stop-color="#280e69"/>
    </linearGradient>
    <filter id="drop-shadow-2" x="2176.76" y="547.32" width="1231.2" height="1583.76" filterUnits="userSpaceOnUse">
      <feOffset dx="-30" dy="20"/>
      <feGaussianBlur result="blur-2" stdDeviation="25"/>
      <feFlood flood-color="#000" flood-opacity=".75"/>
      <feComposite in2="blur-2" operator="in"/>
      <feComposite in="SourceGraphic"/>
    </filter>
    <linearGradient id="Degradado_sin_nombre_84" data-name="Degradado sin nombre 84" x1="2275.93" y1="600.13" x2="1599.93" y2="600.13" gradientUnits="userSpaceOnUse">
      <stop offset=".46" stop-color="#b635f2"/>
      <stop offset="1" stop-color="#280e69"/>
    </linearGradient>
    <filter id="drop-shadow-3" x="1476.44" y="70.2" width="1194" height="1462.08" filterUnits="userSpaceOnUse">
      <feOffset dx="0" dy="30"/>
      <feGaussianBlur result="blur-3" stdDeviation="25"/>
      <feFlood flood-color="#000" flood-opacity=".75"/>
      <feComposite in2="blur-3" operator="in"/>
      <feComposite in="SourceGraphic"/>
    </filter>
    <linearGradient id="Degradado_sin_nombre_346" data-name="Degradado sin nombre 346" x1="903.43" y1="1194.71" x2="1400" y2="1194.71" gradientUnits="userSpaceOnUse">
      <stop offset="0" stop-color="#b635f2"/>
      <stop offset=".9" stop-color="#280e69"/>
    </linearGradient>
    <filter id="drop-shadow-4" x="401" y="1376.28" width="916.8" height="686.16" filterUnits="userSpaceOnUse">
      <feOffset dx="0" dy="30"/>
      <feGaussianBlur result="blur-4" stdDeviation="25"/>
      <feFlood flood-color="#000" flood-opacity=".75"/>
      <feComposite in2="blur-4" operator="in"/>
      <feComposite in="SourceGraphic"/>
    </filter>
    <linearGradient id="Degradado_sin_nombre_221" data-name="Degradado sin nombre 221" x1="1688.88" y1="344.66" x2="1088.36" y2="1384.79" gradientUnits="userSpaceOnUse">
      <stop offset="0" stop-color="#b635f2"/>
      <stop offset=".65" stop-color="#6c1fc5"/>
    </linearGradient>
    <filter id="drop-shadow-5" x="511.88" y="72.84" width="1087.92" height="2077.2" filterUnits="userSpaceOnUse">
      <feOffset dx="-30" dy="30"/>
      <feGaussianBlur result="blur-5" stdDeviation="25"/>
      <feFlood flood-color="#000" flood-opacity=".75"/>
      <feComposite in2="blur-5" operator="in"/>
      <feComposite in="SourceGraphic"/>
    </filter>
    <linearGradient id="Degradado_sin_nombre_178" data-name="Degradado sin nombre 178" x1="1557.03" y1="809.35" x2="2591.59" y2="809.35" gradientUnits="userSpaceOnUse">
      <stop offset="0" stop-color="#280e69"/>
      <stop offset=".05" stop-color="#331a71"/>
      <stop offset=".14" stop-color="#523d86"/>
      <stop offset=".26" stop-color="#8374a9"/>
      <stop offset=".41" stop-color="#c7c0d8"/>
      <stop offset=".52" stop-color="#fff"/>
      <stop offset=".9" stop-color="#b635f2"/>
    </linearGradient>
    <linearGradient id="Degradado_sin_nombre_218" data-name="Degradado sin nombre 218" x1="1685.87" y1="468.44" x2="803.54" y2="1996.67" gradientUnits="userSpaceOnUse">
      <stop offset="0" stop-color="#b635f2"/>
      <stop offset=".52" stop-color="#fff"/>
      <stop offset="1" stop-color="#6c1fc5"/>
    </linearGradient>
    <linearGradient id="Degradado_sin_nombre_297" data-name="Degradado sin nombre 297" x1="567.4" y1="1901.39" x2="1432.46" y2="1036.33" gradientTransform="translate(3638.16) rotate(-180) scale(1 -1)" gradientUnits="userSpaceOnUse">
      <stop offset=".33" stop-color="#b635f2"/>
      <stop offset=".33" stop-color="#b635f2" stop-opacity="1"/>
      <stop offset=".42" stop-color="#cf7cf6" stop-opacity=".97"/>
      <stop offset=".51" stop-color="#e4b4fa" stop-opacity=".94"/>
      <stop offset=".58" stop-color="#f2ddfc" stop-opacity=".93"/>
      <stop offset=".64" stop-color="#fbf5fe" stop-opacity=".92"/>
      <stop offset=".68" stop-color="#fff" stop-opacity=".91"/>
      <stop offset=".7" stop-color="#e4e1ec" stop-opacity=".9"/>
      <stop offset=".76" stop-color="#aca1c5" stop-opacity=".87"/>
      <stop offset=".82" stop-color="#7c6da4" stop-opacity=".84"/>
      <stop offset=".87" stop-color="#57438a" stop-opacity=".82"/>
      <stop offset=".92" stop-color="#3d2678" stop-opacity=".81"/>
      <stop offset=".97" stop-color="#2d146c" stop-opacity=".8"/>
      <stop offset="1" stop-color="#280e69" stop-opacity=".8"/>
    </linearGradient>
    <linearGradient id="Degradado_sin_nombre_332" data-name="Degradado sin nombre 332" x1="3484.27" y1="431" x2="2729.97" y2="1737.48" gradientUnits="userSpaceOnUse">
      <stop offset=".3" stop-color="#b635f2"/>
      <stop offset=".7" stop-color="#fff"/>
      <stop offset="1" stop-color="#280e69"/>
    </linearGradient>
    <linearGradient id="Degradado_sin_nombre_373" data-name="Degradado sin nombre 373" x1="3017.13" y1="1643.39" x2="2447.16" y2="1643.39" gradientTransform="translate(3638.16) rotate(-180) scale(1 -1)" gradientUnits="userSpaceOnUse">
      <stop offset="0" stop-color="#b635f2" stop-opacity="0"/>
      <stop offset="0" stop-color="#b83cf2" stop-opacity=".04"/>
      <stop offset=".02" stop-color="#c55ff4" stop-opacity=".22"/>
      <stop offset=".04" stop-color="#d181f7" stop-opacity=".39"/>
      <stop offset=".06" stop-color="#dc9ff8" stop-opacity=".53"/>
      <stop offset=".08" stop-color="#e5b8fa" stop-opacity=".66"/>
      <stop offset=".1" stop-color="#edcdfb" stop-opacity=".77"/>
      <stop offset=".13" stop-color="#f3defd" stop-opacity=".85"/>
      <stop offset=".16" stop-color="#f8ecfd" stop-opacity=".92"/>
      <stop offset=".2" stop-color="#fbf5fe" stop-opacity=".97"/>
      <stop offset=".25" stop-color="#fdfafe" stop-opacity=".99"/>
      <stop offset=".4" stop-color="#fefcff"/>
      <stop offset=".49" stop-color="#c7bed8" stop-opacity=".95"/>
      <stop offset=".6" stop-color="#8f80b1" stop-opacity=".9"/>
      <stop offset=".7" stop-color="#624f92" stop-opacity=".85"/>
      <stop offset=".79" stop-color="#422b7b" stop-opacity=".82"/>
      <stop offset=".86" stop-color="#2f156d" stop-opacity=".81"/>
      <stop offset=".9" stop-color="#280e69" stop-opacity=".8"/>
    </linearGradient>
  </defs>
  <g id="Siluetas">
    <path class="cls-7" d="M3364.35,166.69v1325.04c0,2.24-.02,4.48-.06,6.7-1.53,89.7-33.86,171.9-86.84,236.5-56.25,68.58-135.81,117.31-226.56,134.09-.51.09-1.03.2-1.54.28-22.3,4.05-45.26,6.15-68.72,6.15-119.61,0-226.45-54.74-296.82-140.52-39.78-48.5-67.91-106.9-80.11-170.97,24.66,98.22,113.54,170.97,219.43,170.97,124.94,0,226.22-101.28,226.22-226.22l1.54-87.25v-877.84c5.25-58.76,24.86-121.66,59.43-181.55,63.88-110.67,162.29-182.26,254.03-195.4Z"/>
    <path class="cls-10" d="M3362.81,1495.6c0,81.67-18.13,159.13-50.56,228.54-53.91,115.36-147.36,208.52-262.91,262.07-.51.25-1.02.48-1.54.71-68.62,31.55-144.98,49.14-225.45,49.14s-157.98-17.85-226.99-49.85c-115.55-53.55-209-146.71-262.91-262.07-30.34-64.92-48.15-136.87-50.32-212.74v-31.59c-.15,5.25-.23,10.52-.23,15.8v-122.53l.19-.15.43-.36-.43-.53v-274.88h-.02v-115.89l163.43-197.58,149.86-181.18v895.4c0,19.05,2.36,37.57,6.79,55.25,12.2,64.07,40.33,122.47,80.11,170.97,70.37,85.78,177.21,140.52,296.82,140.52,23.46,0,46.42-2.1,68.72-6.15.51-.08,1.03-.19,1.54-.28,90.75-16.79,170.31-65.52,226.56-134.09,52.98-64.61,85.31-146.8,86.84-236.5.05,2.64.06,5.31.06,7.97Z"/>
    <polyline class="cls-8" points="1551.51 788.37 1551.51 493.48 1917.04 935.38 1917.47 935.9 1917.47 934.87 2281.89 494.32 2595.36 115.37 2595.36 607.15 2445.5 788.33 2282.06 985.9 2281.89 986.1 2120.45 1181.28 1917.47 1426.67 1917.06 1427.18 1713.64 1181.28 1552.28 986.21"/>
    <path class="cls-9" d="M1242.78,1546.24l-1.65,62.05c-4.03,44.89-15.8,87.55-33.94,126.65-60.93,131.3-193.96,222.36-348.24,222.36-24,0-47.48-2.21-70.26-6.42-63.65-11.78-121.79-39.27-170.26-78.29l-.02-.02c-37.31-40.63-68.44-87-91.92-137.63-28.68-61.78-46.4-129.26-49.61-201.06-.45.68-.88-112.4-.88-112.4h312.69v87.25c0,124.94,101.28,226.22,226.22,226.22,117.91,0,214.27-90.53,224.78-205.69.36,3.09,3.09,15.44,3.09,16.99Z"/>
    <path class="cls-6" d="M1554.7,1507.63c0,80.81-20.89,156.67-52.81,225.45-53.54,115.41-146.79,208.66-262.2,262.2-68.78,31.92-145.41,49.72-226.22,49.72s-157.44-17.8-226.22-49.72c-64.76-30.05-122.56-72.59-170.26-124.55,48.47,39.02,106.61,66.51,170.26,78.29,22.78,4.22,46.26,6.42,70.26,6.42,154.28,0,287.31-91.06,348.24-222.36,18.14-39.1,29.91-81.76,33.94-126.65,1.02-11.44,1.54-23.01,1.54-34.71s-.53-23.27-1.54-34.71V118.01l.15-.12h.6l312.71,378.04v923.69l1.54,88.02Z"/>
  </g>
  <g id="Lineas">
    <polyline class="cls-4" points="2590.83 411.28 1909.86 1206.52 1557.79 792.69"/>
    <path class="cls-3" d="M1387.93,297.01l7.72,1215.25c-4.63,359.79-355.16,691.78-752.01,382.95"/>
    <path class="cls-2" d="M2425.61,817.39l18.53,704.14c1.54,210.01,152.87,523.47,605.31,399.94"/>
    <path class="cls-5" d="M3197.69,266.13l7.72,847.74c16.99,460.16-1.54,730.39-387.58,673.25"/>
    <path class="cls-1" d="M622.03,1433.51c0,193.02,186.84,656.27,568.25,268.68"/>
  </g>
</svg>